<?xml version="1.0" standalone="no"?>
<!DOCTYPE svg PUBLIC "-//W3C//DTD SVG 20010904//EN"
 "http://www.w3.org/TR/2001/REC-SVG-20010904/DTD/svg10.dtd">
<svg version="1.0" xmlns="http://www.w3.org/2000/svg"
 width="260.000000pt" height="260.000000pt" viewBox="0 0 260.000000 260.000000"
 preserveAspectRatio="xMidYMid meet">
<metadata>
Created by potrace 1.11, written by Peter Selinger 2001-2013
</metadata>
<g transform="translate(0.000000,260.000000) scale(0.100000,-0.100000)"
fill="#000000" stroke="none">
<path d="M0 1300 l0 -1300 1300 0 1300 0 0 1300 0 1300 -1300 0 -1300 0 0
-1300z m1435 940 c3 -5 1 -10 -4 -10 -6 0 -11 5 -11 10 0 6 2 10 4 10 3 0 8
-4 11 -10z m43 -27 c-15 -2 -42 -2 -60 0 -18 2 -6 4 27 4 33 0 48 -2 33 -4z
m-282 -31 c-17 -16 -18 -16 -5 5 7 12 15 20 18 17 3 -2 -3 -12 -13 -22z m269
-78 c-16 -13 -37 -24 -45 -23 -10 0 -8 3 5 8 11 5 29 18 39 30 11 12 22 18 25
15 3 -3 -7 -17 -24 -30z m-505 23 c0 -2 -10 -12 -22 -23 l-23 -19 19 23 c18
21 26 27 26 19z m258 -140 c-59 -44 -92 -57 -141 -56 l-42 1 45 8 c61 11 97
26 132 55 16 14 34 25 40 25 5 0 -10 -15 -34 -33z m-558 -47 c8 -5 11 -10 5
-10 -5 0 -17 5 -25 10 -8 5 -10 10 -5 10 6 0 17 -5 25 -10z m78 -27 c-10 -2
-28 -2 -40 0 -13 2 -5 4 17 4 22 1 32 -1 23 -4z m1070 -138 c28 -16 50 -30 48
-32 -8 -8 -107 52 -152 93 l-49 46 50 -40 c28 -22 74 -52 103 -67z m-773 -65
c-3 -5 -12 -10 -18 -10 -7 0 -6 4 3 10 19 12 23 12 15 0z m959 -339 c52 -31
166 -72 209 -74 18 -1 18 -2 0 -15 -18 -14 -103 -8 -113 7 -3 5 -15 13 -27 19
-18 10 -20 9 -16 -7 3 -14 -1 -17 -19 -16 -12 1 -23 8 -23 16 0 16 -33 54 -52
60 -6 2 -22 19 -35 38 -22 33 -60 59 -43 30 5 -8 4 -11 -1 -6 -5 5 -9 12 -9
17 0 4 -24 27 -52 50 -29 23 -53 46 -53 51 0 6 40 -23 89 -63 49 -40 115 -88
145 -107z m-1235 95 c-9 -8 -10 -7 -5 7 3 10 7 26 7 35 1 9 4 6 6 -7 3 -13 -1
-28 -8 -35z m1591 50 c0 -2 -8 -10 -17 -17 -16 -13 -17 -12 -4 4 13 16 21 21
21 13z m-80 -37 c0 -7 10 -9 25 -5 32 8 33 -2 1 -14 -31 -11 -107 7 -85 21 20
12 59 11 59 -2z m-1301 -190 c19 -27 32 -51 30 -53 -2 -2 -21 20 -41 50 -20
30 -34 54 -30 54 4 0 22 -23 41 -51z m228 -26 c-3 -10 -5 -4 -5 12 0 17 2 24
5 18 2 -7 2 -21 0 -30z m-7 -30 c0 -5 -10 -19 -21 -33 l-20 -25 16 33 c15 30
25 41 25 25z m88 -68 c-3 -3 -9 2 -12 12 -6 14 -5 15 5 6 7 -7 10 -15 7 -18z
m22 -48 c0 -5 -4 -5 -10 -2 -5 3 -10 14 -10 23 0 15 2 15 10 2 5 -8 10 -19 10
-23z m-25 -62 c-10 -19 -22 -35 -27 -35 -5 0 0 12 11 26 12 15 21 34 21 42 0
8 3 12 7 8 4 -4 -1 -22 -12 -41z m-264 -53 c-5 -10 -18 -25 -27 -33 -11 -9 -9
-2 6 19 26 35 36 42 21 14z m-371 -126 c0 -2 -8 -10 -17 -17 -16 -13 -17 -12
-4 4 13 16 21 21 21 13z m55 -96 c-27 -12 -43 -12 -25 0 8 5 22 9 30 9 10 0 8
-3 -5 -9z"/>
</g>
</svg>
